{"title":"Cassadee Pope - I Am Invincible (2015.Country)","uid":12497226,"size":99315344,"categoryP":"video","categoryS":"music_videos","magnet":"?xt=urn:btih:ac2e5457b808516f9c6de0995c70c734640adf88&amp;dn=Cassadee+Pope+-+I+Am+Invincible+%282015.Country%29&amp;tr=udp%3A%2F%2Ftracker.leechers-paradise.org%3A6969&amp;tr=udp%3A%2F%2Fzer0day.ch%3A1337&amp;tr=udp%3A%2F%2Fopen.demonii.com%3A1337&amp;tr=udp%3A%2F%2Ftracker.coppersurfer.tk%3A6969&amp;tr=udp%3A%2F%2Fexodus.desync.com%3A6969","seeders":0,"leechers":0,"uploader":"MeRaDil","files":1,"time":1443298884,"description":"CASSADEE POPE - I AM INVINCIBLE\r\n\r\n \nhttp://gifyu.com/images/CassadeePope-2.png\r\n \nhttp://gifyu.com/images/CassadeePope-3.png\r\n\r\n\r\nMEDIA INFO\r\nGeneral\r\nCassadee Pope - I Am Invincible\r\nFormat                                   : MPEG-4\r\nFormat profile                           : Base Media\r\nCodec ID                                 : isom\r\nFile size                                : 94.7 MiB\r\nDuration                                 : 3mn 33s\r\nOverall bit rate                         : 3 724 Kbps\r\nMusicVid name                            : I Am Invincible\r\nPerformer                                : Cassadee Pope\r\nGenre                                    : Country/Pop\r\nContentType                              : Music Video\r\nRecorded date                            : 2015\r\nCover                                    : Yes\r\nRating                                   : ***\r\nMake                                     : MeRaDil\r\nArtist url                               : http://www.cassadeepope.com/\r\nRelease                                  : USA . september 23 . 2015\r\n \nhttps://thepiratebay.la/user/MeRaDil\r\n\r\nVideo\r\nFormat                                   : AVC\r\nFormat/Info                              : Advanced Video Codec\r\nFormat profile                           :   \r\nFormat settings, CABAC                   : Yes\r\nFormat settings, ReFrames                : 2 frames\r\nCodec ID                                 : avc1\r\nCodec ID/Info                            : Advanced Video Coding\r\nDuration                                 : 3mn 33s\r\nBit rate                                 : 3 449 Kbps\r\nWidth                                    : 1 920 pixels\r\nHeight                                   : 1 080 pixels\r\nDisplay aspect ratio                     : 16:9\r\nFrame rate mode                          : Variable\r\nFrame rate                               : 23.976 fps\r\nMinimum frame rate                       : 23.974 fps\r\nMaximum frame rate                       : 23.981 fps\r\nColor space                              : YUV\r\nChroma subsampling                       : 4:2:0\r\nBit depth                                : 8 bits\r\nScan type                                : Progressive\r\nBits/(Pixel*Frame)                       : 0.069\r\nStream size                              : 87.7 MiB (93%)\r\n\r\nAudio\r\nFormat                                   : AAC\r\nFormat/Info                              : Advanced Audio Codec\r\nFormat profile                           : LC\r\nCodec ID                                 : 40\r\nDuration                                 : 3mn 33s\r\nBit rate mode                            : Constant\r\nBit rate                                 : 256 Kbps\r\nChannel(s)                               : 2 channels\r\nChannel positions                        : Front: L R\r\nSampling rate                            : 44.1 KHz\r\nCompression mode                         : Lossy\r\nStream size                              : 6.51 MiB (7%)\r\n\r\nCassadee Pope * Country/Pop * Promo","torrent":{"xt":"urn:btih:ac2e5457b808516f9c6de0995c70c734640adf88","amp;dn":"Cassadee+Pope+-+I+Am+Invincible+%282015.Country%29","amp;tr":["udp%3A%2F%2Ftracker.leechers-paradise.org%3A6969","udp%3A%2F%2Fzer0day.ch%3A1337","udp%3A%2F%2Fopen.demonii.com%3A1337","udp%3A%2F%2Ftracker.coppersurfer.tk%3A6969","udp%3A%2F%2Fexodus.desync.com%3A6969"],"infoHash":"ac2e5457b808516f9c6de0995c70c734640adf88","infoHashBuffer":{"type":"Buffer","data":[172,46,84,87,184,8,81,111,156,109,224,153,92,112,199,52,100,10,223,136]},"announce":[],"urlList":[]}}